<?xml version="1.0" standalone="no"?>
<!DOCTYPE svg PUBLIC "-//W3C//DTD SVG 20010904//EN"
 "http://www.w3.org/TR/2001/REC-SVG-20010904/DTD/svg10.dtd">
<svg version="1.0" xmlns="http://www.w3.org/2000/svg"
 width="1000.000000pt" height="1000.000000pt" viewBox="0 0 1000.000000 1000.000000"
 preserveAspectRatio="xMidYMid meet">
<metadata>
Created by potrace 1.14, written by Peter Selinger 2001-2017
</metadata>
<g transform="translate(0.000000,1000.000000) scale(0.100000,-0.100000)"
fill="#000000" stroke="none">
<path d="M4955 9410 c-44 -4 -116 -11 -160 -15 -44 -4 -89 -9 -100 -11 -11 -2
-36 -6 -55 -9 -19 -2 -51 -7 -70 -10 -19 -3 -48 -8 -65 -10 -16 -2 -41 -6 -55
-9 -162 -35 -165 -35 -250 -57 -25 -6 -52 -12 -60 -14 -8 -2 -15 -4 -15 -5 0
-1 -9 -3 -20 -5 -11 -2 -56 -16 -100 -30 -44 -14 -83 -25 -87 -25 -4 0 -19 -5
-35 -12 -15 -6 -37 -13 -47 -15 -11 -2 -25 -8 -32 -14 -6 -5 -16 -9 -20 -7 -5
1 -24 -6 -41 -15 -18 -10 -35 -17 -38 -17 -9 2 -115 -39 -175 -66 -30 -14 -95
-44 -145 -67 -49 -22 -98 -48 -107 -56 -10 -8 -18 -11 -18 -6 0 4 -6 3 -12 -2
-13 -11 -90 -54 -166 -93 -23 -12 -45 -26 -48 -31 -3 -5 -10 -7 -15 -4 -5 4
-9 2 -9 -2 0 -5 -15 -17 -32 -27 -54 -31 -171 -108 -210 -139 -21 -16 -38 -25
-38 -20 0 4 -11 -5 -25 -20 -14 -15 -29 -27 -33 -27 -4 0 -19 -10 -34 -23 -14
-12 -38 -31 -53 -41 -14 -11 -35 -27 -45 -35 -10 -9 -38 -32 -61 -51 -70 -57
-144 -123 -147 -132 -2 -4 -10 -8 -18 -8 -8 0 -14 -7 -14 -15 0 -8 -4 -15 -9
-15 -17 0 -246 -235 -351 -360 -25 -29 -54 -64 -65 -76 -11 -13 -31 -37 -45
-55 -14 -18 -31 -38 -38 -45 -6 -7 -12 -17 -12 -22 0 -4 -11 -19 -25 -32 -14
-13 -25 -29 -25 -36 0 -7 -4 -14 -9 -16 -8 -3 -181 -256 -181 -265 0 -3 -8
-17 -19 -31 -20 -30 -60 -100 -100 -177 -14 -27 -29 -51 -33 -53 -5 -2 -8 -12
-8 -22 0 -10 -3 -20 -7 -22 -5 -1 -24 -37 -43 -78 -19 -41 -39 -78 -43 -81 -5
-3 -8 -8 -7 -10 2 -5 -17 -55 -39 -104 -11 -22 -33 -78 -51 -125 -18 -47 -37
-96 -43 -110 -11 -28 -14 -36 -21 -67 -2 -12 -10 -31 -16 -42 -6 -12 -8 -21
-4 -21 3 0 2 -6 -4 -12 -5 -7 -13 -29 -17 -48 -4 -19 -10 -39 -13 -45 -4 -5
-7 -14 -8 -20 -2 -5 -12 -46 -24 -90 -12 -44 -23 -91 -26 -105 -3 -14 -7 -32
-10 -40 -3 -8 -8 -26 -10 -40 -6 -32 -12 -58 -19 -90 -7 -33 -35 -197 -41
-235 -32 -242 -38 -329 -38 -605 -1 -224 5 -376 18 -475 2 -16 7 -59 11 -95 4
-36 9 -74 11 -85 2 -11 7 -40 9 -65 3 -25 8 -53 11 -63 3 -11 8 -30 10 -43 6
-39 11 -66 24 -124 7 -30 13 -61 13 -67 0 -7 4 -13 9 -13 5 0 7 -4 4 -9 -3 -4
4 -41 15 -82 12 -41 23 -84 25 -96 2 -12 9 -35 16 -50 6 -16 13 -37 15 -48 3
-19 10 -41 29 -90 4 -11 8 -22 9 -25 4 -19 29 -87 34 -95 3 -5 6 -15 7 -20 2
-11 50 -135 82 -210 36 -84 185 -380 193 -383 5 -2 9 -9 9 -15 0 -7 22 -48 50
-92 27 -44 50 -85 50 -91 0 -7 7 -15 16 -18 8 -3 13 -10 10 -15 -3 -4 3 -16
14 -26 11 -10 20 -22 20 -27 0 -5 6 -16 12 -23 26 -29 34 -40 41 -57 3 -10 11
-18 17 -18 6 0 8 -4 5 -10 -3 -5 -2 -10 3 -10 5 0 15 -13 22 -30 7 -16 15 -30
19 -30 3 0 17 -17 31 -38 14 -20 33 -46 42 -57 10 -11 48 -56 84 -100 183
-220 353 -393 539 -549 38 -32 72 -62 73 -67 2 -5 10 -9 18 -9 8 0 14 -4 14
-8 0 -15 320 -245 393 -281 15 -8 27 -18 27 -23 0 -4 4 -8 10 -8 5 0 34 -15
63 -34 47 -30 364 -200 377 -201 3 -1 36 -16 74 -33 38 -18 70 -32 72 -32 3 0
24 -9 48 -21 25 -11 51 -22 58 -23 7 -1 30 -10 52 -19 21 -9 42 -17 47 -17 5
0 17 -4 27 -10 9 -5 62 -23 117 -41 93 -29 107 -34 127 -38 4 -1 27 -8 50 -17
23 -8 54 -17 70 -19 16 -3 74 -17 129 -31 55 -14 114 -27 129 -29 16 -2 37 -6
47 -9 10 -3 36 -7 58 -11 39 -5 70 -10 130 -20 43 -7 99 -14 270 -32 91 -9
574 -10 690 -1 144 12 199 20 207 32 5 8 8 7 8 -1 0 -7 6 -11 13 -8 6 2 32 7
57 10 85 12 156 23 195 32 11 2 31 6 45 8 39 7 65 13 65 16 0 1 9 3 20 5 52 8
228 50 255 61 8 3 20 7 25 9 6 1 24 7 42 12 17 6 34 8 37 4 3 -3 6 0 6 6 0 7
3 11 8 10 9 -3 145 42 252 84 47 18 88 31 93 30 4 -1 7 2 7 7 0 5 12 12 28 15
38 10 415 195 424 210 4 6 8 7 8 1 0 -6 3 -6 8 0 4 6 18 16 32 22 14 7 43 24
65 38 22 14 47 28 55 32 8 4 20 11 25 15 6 5 53 37 105 71 86 56 287 201 300
216 3 3 25 22 50 42 25 20 56 46 70 58 14 12 47 41 74 64 89 77 299 291 399
407 14 16 137 168 150 185 4 5 16 21 28 35 11 13 29 39 40 57 11 18 25 33 30
33 5 0 9 4 9 9 0 6 29 53 65 106 36 53 65 101 65 106 0 5 4 9 9 9 5 0 11 8 14
18 6 17 37 72 47 82 11 11 245 465 240 465 -2 0 12 38 30 80 19 43 91 233 95
250 1 6 5 17 8 25 6 16 40 122 42 130 1 3 7 25 14 50 7 25 14 50 15 55 1 6 5
19 9 30 3 11 9 31 11 45 3 14 12 52 21 85 8 33 17 71 20 85 8 39 14 73 20 100
2 14 7 41 10 60 3 19 7 46 10 60 7 39 16 101 21 145 2 22 6 56 9 75 27 208 28
705 0 935 -11 93 -17 143 -21 170 -17 118 -43 252 -70 365 -9 36 -18 76 -21
89 -2 13 -8 32 -14 43 -5 10 -7 18 -5 18 3 0 -1 18 -9 40 -8 22 -12 40 -8 40
3 0 0 7 -7 15 -7 8 -9 15 -5 15 4 0 2 7 -5 15 -7 8 -10 15 -8 15 3 0 -6 30
-19 68 -13 37 -25 72 -27 77 -8 33 -30 92 -39 103 -5 6 -7 12 -4 12 6 0 -6 31
-38 105 -7 17 -21 50 -32 75 -24 58 -184 383 -192 390 -3 3 -21 34 -40 70 -19
36 -37 67 -41 70 -3 3 -21 31 -39 63 -18 31 -38 63 -44 70 -15 16 -35 47 -44
67 -4 8 -9 17 -13 20 -3 3 -30 40 -60 84 -30 43 -69 94 -87 112 -17 19 -30 34
-27 34 4 0 -7 13 -49 63 -11 12 -33 39 -50 61 -104 126 -467 491 -467 468 0
-3 -8 4 -17 14 -10 11 -54 49 -98 84 -44 36 -81 68 -83 72 -2 5 -8 8 -13 8 -8
0 -64 40 -124 89 -6 4 -53 35 -105 69 -52 34 -99 65 -105 70 -5 4 -35 21 -65
38 -30 16 -57 32 -60 35 -8 11 -372 199 -384 199 -2 0 -30 12 -62 27 -33 15
-63 28 -69 29 -5 1 -42 16 -82 32 -39 17 -74 28 -77 24 -3 -3 -6 1 -6 8 0 7
-3 10 -7 7 -3 -4 -12 -2 -20 4 -7 6 -13 8 -13 4 0 -4 -6 -3 -12 2 -7 6 -26 14
-43 18 -37 10 -34 9 -68 23 -16 7 -34 12 -41 12 -7 0 -16 3 -20 7 -3 4 -14 8
-24 9 -9 1 -51 12 -92 24 -100 28 -128 35 -175 45 -11 3 -31 7 -45 10 -14 4
-36 8 -50 11 -14 2 -45 9 -70 14 -59 12 -152 28 -215 35 -27 4 -57 8 -65 10
-8 2 -51 7 -95 11 -44 3 -89 8 -100 11 -34 8 -576 10 -660 3z"/>
</g>
</svg>
